<?xml version="1.0" encoding="UTF-8" standalone="no"?><!DOCTYPE svg PUBLIC "-//W3C//DTD SVG 1.1//EN" "http://www.w3.org/Graphics/SVG/1.1/DTD/svg11.dtd"><svg width="100%" height="100%" viewBox="0 0 1018 1018" version="1.1" xmlns="http://www.w3.org/2000/svg" xmlns:xlink="http://www.w3.org/1999/xlink" xml:space="preserve" xmlns:serif="http://www.serif.com/" style="fill-rule:evenodd;clip-rule:evenodd;stroke-linecap:round;stroke-linejoin:round;stroke-miterlimit:1.5;"><g><ellipse cx="508.75" cy="508.788" rx="508.75" ry="508.788"/><circle cx="508.635" cy="508.732" r="299.401" style="fill:none;stroke:#fff;stroke-width:41.67px;"/><path d="M868.491,868.491c95.409,-95.41 149.009,-224.812 149.009,-359.741c0,-134.929 -53.6,-264.331 -149.009,-359.741l-359.741,359.741l359.741,359.741Z" style="fill:#0df228;"/><path d="M869.607,150.129l1.112,1.123l1.109,1.126l1.104,1.129l1.101,1.131l1.097,1.136l1.093,1.138l1.089,1.141l1.086,1.144l1.081,1.147l1.078,1.15l1.074,1.153l1.07,1.157l1.066,1.159l1.062,1.162l1.058,1.165l1.054,1.168l1.051,1.171l1.046,1.174l1.043,1.177l1.039,1.18l1.034,1.182l1.031,1.186l1.027,1.188l1.023,1.191l1.019,1.194l1.016,1.197l1.011,1.2l1.007,1.203l1.003,1.205l1,1.209l0.995,1.211l0.992,1.214l0.987,1.216l0.984,1.22l0.979,1.222l0.976,1.225l0.971,1.227l0.968,1.231l0.963,1.233l0.96,1.235l0.956,1.239l0.951,1.241l0.948,1.244l0.943,1.246l0.94,1.249l0.935,1.252l0.932,1.255l0.927,1.257l0.924,1.259l0.919,1.263l0.916,1.264l0.911,1.268l0.907,1.27l0.903,1.272l0.9,1.276l0.895,1.277l0.891,1.28l0.887,1.283l0.882,1.285l0.879,1.288l0.875,1.29l0.871,1.293l0.866,1.295l0.862,1.298l0.859,1.3l0.854,1.302l0.85,1.305l0.846,1.308l0.842,1.31l0.838,1.312l0.833,1.314l0.83,1.317l0.825,1.32l0.821,1.321l0.817,1.324l0.813,1.327l0.809,1.328l0.805,1.331l0.8,1.334l0.796,1.335l0.792,1.338l0.788,1.34l0.784,1.343l0.78,1.345l0.775,1.347l0.771,1.349l0.767,1.351l0.763,1.354l0.759,1.356l0.754,1.358l0.75,1.36l0.746,1.362l0.742,1.365l0.738,1.367l0.733,1.368l0.729,1.371l0.725,1.374l0.72,1.375l0.717,1.377l0.712,1.38l0.708,1.381l0.703,1.384l0.7,1.385l0.695,1.388l0.69,1.39l0.687,1.392l0.682,1.393l0.678,1.396l0.674,1.398l0.669,1.4l0.665,1.402l0.661,1.403l0.656,1.406l0.653,1.408l0.647,1.41l0.644,1.411l0.639,1.414l0.635,1.415l0.631,1.417l0.626,1.419l0.622,1.422l0.617,1.422l0.613,1.425l0.609,1.427l0.605,1.428l0.6,1.431l0.596,1.432l0.591,1.434l0.587,1.435l0.583,1.438l0.578,1.439l0.574,1.441l0.569,1.443l0.566,1.445l0.56,1.446l0.557,1.448l0.551,1.45l0.548,1.451l0.543,1.454l0.539,1.454l0.534,1.457l0.53,1.458l0.525,1.46l0.521,1.461l0.517,1.464l0.512,1.464l0.507,1.467l0.503,1.468l0.499,1.469l0.494,1.471l0.49,1.473l0.485,1.475l0.481,1.475l0.477,1.478l0.472,1.479l0.467,1.48l0.463,1.482l0.458,1.484l0.454,1.485l0.45,1.486l0.445,1.488l0.44,1.489l0.436,1.491l0.431,1.493l0.427,1.493l0.422,1.495l0.418,1.497l0.413,1.498l0.409,1.499l0.404,1.501l0.4,1.502l0.395,1.504l0.39,1.504l0.386,1.506l0.382,1.508l0.376,1.509l0.373,1.51l0.367,1.511l0.363,1.513l0.359,1.514l0.354,1.515l0.349,1.517l0.345,1.517l0.34,1.519l0.335,1.521l0.331,1.521l0.326,1.523l0.322,1.524l0.317,1.525l0.312,1.526l0.308,1.527l0.303,1.529l0.299,1.53l0.294,1.53l0.289,1.532l0.284,1.533l0.28,1.535l0.275,1.535l0.271,1.536l0.266,1.538l0.261,1.538l0.256,1.54l0.252,1.54l0.247,1.542l0.243,1.543l0.238,1.543l0.233,1.545l0.228,1.546l0.224,1.546l0.218,1.548l0.215,1.549l0.209,1.549l0.205,1.551l0.2,1.551l0.195,1.552l0.191,1.554l0.186,1.554l0.181,1.555l0.176,1.556l0.171,1.557l0.167,1.557l0.162,1.559l0.158,1.559l0.152,1.561l0.148,1.561l0.143,1.561l0.138,1.563l0.133,1.563l0.129,1.565l0.123,1.565l0.119,1.565l0.115,1.567l0.109,1.567l0.104,1.568l0.1,1.569l0.095,1.569l0.09,1.57l0.085,1.571l0.081,1.572l0.075,1.572l0.071,1.572l0.066,1.574l0.061,1.574l0.056,1.575l0.051,1.575l0.047,1.576l0.041,1.576l0.037,1.578l0.032,1.577l0.027,1.579l0.022,1.578l0.017,1.58l0.012,1.58l0.008,1.58l0.002,1.581l-0.002,1.581l-0.008,1.58l-0.012,1.58l-0.017,1.58l-0.022,1.578l-0.027,1.579l-0.032,1.577l-0.037,1.578l-0.041,1.576l-0.047,1.576l-0.051,1.575l-0.056,1.575l-0.061,1.574l-0.066,1.574l-0.071,1.572l-0.075,1.572l-0.081,1.572l-0.085,1.571l-0.09,1.57l-0.095,1.569l-0.1,1.569l-0.104,1.568l-0.109,1.567l-0.115,1.567l-0.119,1.565l-0.123,1.565l-0.129,1.565l-0.133,1.563l-0.138,1.563l-0.143,1.561l-0.148,1.561l-0.152,1.561l-0.158,1.559l-0.162,1.559l-0.167,1.557l-0.171,1.557l-0.176,1.556l-0.181,1.555l-0.186,1.554l-0.191,1.554l-0.195,1.552l-0.2,1.551l-0.205,1.551l-0.209,1.549l-0.215,1.549l-0.218,1.548l-0.224,1.546l-0.228,1.546l-0.233,1.545l-0.238,1.543l-0.243,1.543l-0.247,1.542l-0.252,1.54l-0.256,1.54l-0.261,1.538l-0.266,1.538l-0.271,1.536l-0.275,1.535l-0.28,1.535l-0.284,1.533l-0.289,1.532l-0.294,1.53l-0.299,1.53l-0.303,1.529l-0.308,1.527l-0.312,1.526l-0.317,1.525l-0.322,1.524l-0.326,1.523l-0.331,1.521l-0.335,1.521l-0.34,1.519l-0.345,1.517l-0.349,1.517l-0.354,1.515l-0.359,1.514l-0.363,1.513l-0.367,1.511l-0.373,1.51l-0.376,1.509l-0.382,1.508l-0.386,1.506l-0.39,1.504l-0.395,1.504l-0.4,1.502l-0.404,1.501l-0.409,1.499l-0.413,1.498l-0.418,1.497l-0.422,1.495l-0.427,1.493l-0.431,1.493l-0.436,1.491l-0.44,1.489l-0.445,1.488l-0.45,1.486l-0.454,1.485l-0.458,1.484l-0.463,1.482l-0.467,1.48l-0.472,1.479l-0.477,1.478l-0.481,1.475l-0.485,1.475l-0.49,1.473l-0.494,1.471l-0.499,1.469l-0.503,1.468l-0.507,1.467l-0.512,1.464l-0.517,1.464l-0.521,1.461l-0.525,1.46l-0.53,1.458l-0.534,1.457l-0.539,1.454l-0.543,1.454l-0.548,1.451l-0.551,1.45l-0.557,1.448l-0.56,1.446l-0.566,1.445l-0.569,1.443l-0.574,1.441l-0.578,1.439l-0.583,1.438l-0.587,1.435l-0.591,1.434l-0.596,1.432l-0.6,1.431l-0.605,1.428l-0.609,1.427l-0.613,1.425l-0.617,1.422l-0.622,1.422l-0.626,1.419l-0.631,1.417l-0.635,1.415l-0.639,1.414l-0.644,1.411l-0.647,1.41l-0.653,1.408l-0.656,1.406l-0.661,1.403l-0.665,1.402l-0.669,1.4l-0.674,1.398l-0.678,1.396l-0.682,1.393l-0.687,1.392l-0.69,1.39l-0.695,1.388l-0.7,1.385l-0.703,1.384l-0.708,1.381l-0.712,1.38l-0.717,1.377l-0.72,1.375l-0.725,1.374l-0.729,1.371l-0.733,1.368l-0.738,1.367l-0.742,1.365l-0.746,1.362l-0.75,1.36l-0.754,1.358l-0.759,1.356l-0.763,1.354l-0.767,1.351l-0.771,1.349l-0.775,1.347l-0.78,1.345l-0.784,1.343l-0.788,1.34l-0.792,1.338l-0.796,1.335l-0.8,1.334l-0.805,1.331l-0.809,1.328l-0.813,1.327l-0.817,1.324l-0.821,1.321l-0.825,1.32l-0.83,1.317l-0.833,1.314l-0.838,1.312l-0.842,1.31l-0.846,1.308l-0.85,1.305l-0.854,1.302l-0.859,1.3l-0.862,1.298l-0.866,1.295l-0.871,1.293l-0.875,1.29l-0.879,1.288l-0.882,1.285l-0.887,1.283l-0.891,1.28l-0.895,1.277l-0.9,1.276l-0.903,1.272l-0.907,1.27l-0.911,1.268l-0.916,1.264l-0.919,1.263l-0.924,1.259l-0.927,1.257l-0.932,1.255l-0.935,1.252l-0.94,1.249l-0.943,1.246l-0.948,1.244l-0.951,1.241l-0.956,1.239l-0.96,1.235l-0.963,1.233l-0.968,1.231l-0.971,1.227l-0.976,1.225l-0.979,1.222l-0.984,1.22l-0.987,1.216l-0.992,1.214l-0.995,1.211l-1,1.209l-1.003,1.205l-1.007,1.203l-1.011,1.2l-1.016,1.197l-1.019,1.194l-1.023,1.191l-1.027,1.188l-1.031,1.186l-1.034,1.182l-1.039,1.18l-1.043,1.177l-1.046,1.174l-1.051,1.171l-1.054,1.168l-1.058,1.165l-1.062,1.162l-1.066,1.159l-1.07,1.157l-1.074,1.153l-1.078,1.15l-1.081,1.147l-1.086,1.144l-1.089,1.141l-1.093,1.138l-1.097,1.136l-1.101,1.131l-1.104,1.129l-1.109,1.126l-1.112,1.123l-1.116,1.12l-359.741,-359.741l359.741,-359.741l1.116,1.12Zm-301.931,358.621l299.499,299.499l0.129,-0.155l0.922,-1.107l0.918,-1.11l0.914,-1.112l0.908,-1.112l0.907,-1.117l0.903,-1.119l0.898,-1.122l0.897,-1.126l0.892,-1.127l0.888,-1.129l0.886,-1.133l0.88,-1.134l0.877,-1.136l0.874,-1.141l0.87,-1.141l0.867,-1.146l0.861,-1.144l0.858,-1.149l0.858,-1.155l0.852,-1.154l0.845,-1.153l0.844,-1.159l0.841,-1.162l0.835,-1.162l0.835,-1.168l0.829,-1.169l0.825,-1.17l0.824,-1.176l0.816,-1.172l0.814,-1.178l0.812,-1.182l0.807,-1.181l0.802,-1.184l0.799,-1.187l0.794,-1.186l0.792,-1.192l0.791,-1.198l0.782,-1.192l0.779,-1.197l0.78,-1.204l0.773,-1.203l0.767,-1.202l0.764,-1.205l0.764,-1.212l0.758,-1.212l0.753,-1.211l0.751,-1.218l0.746,-1.216l0.741,-1.218l0.74,-1.225l0.735,-1.223l0.732,-1.229l0.726,-1.226l0.722,-1.228l0.722,-1.237l0.715,-1.233l0.712,-1.237l0.708,-1.237l0.703,-1.241l0.7,-1.242l0.698,-1.247l0.694,-1.249l0.687,-1.245l0.684,-1.25l0.683,-1.256l0.677,-1.254l0.672,-1.255l0.669,-1.259l0.666,-1.261l0.662,-1.264l0.657,-1.262l0.653,-1.267l0.651,-1.269l0.647,-1.272l0.642,-1.273l0.638,-1.273l0.633,-1.273l0.63,-1.279l0.628,-1.283l0.621,-1.278l0.619,-1.284l0.614,-1.285l0.611,-1.287l0.607,-1.29l0.603,-1.292l0.599,-1.291l0.593,-1.291l0.592,-1.299l0.588,-1.3l0.581,-1.295l0.58,-1.303l0.575,-1.303l0.571,-1.305l0.566,-1.305l0.563,-1.309l0.561,-1.313l0.554,-1.308l0.55,-1.314l0.548,-1.315l0.543,-1.318l0.539,-1.318l0.534,-1.316l0.531,-1.322l0.528,-1.326l0.522,-1.323l0.518,-1.325l0.517,-1.332l0.511,-1.33l0.506,-1.329l0.502,-1.331l0.499,-1.336l0.494,-1.334l0.491,-1.338l0.487,-1.342l0.481,-1.337l0.478,-1.34l0.474,-1.344l0.471,-1.346l0.467,-1.348l0.462,-1.348l0.457,-1.347l0.455,-1.354l0.448,-1.348l0.445,-1.353l0.443,-1.358l0.437,-1.356l0.433,-1.357l0.429,-1.359l0.425,-1.361l0.422,-1.365l0.417,-1.364l0.412,-1.362l0.408,-1.366l0.404,-1.364l0.399,-1.369l0.398,-1.374l0.392,-1.373l0.387,-1.37l0.384,-1.374l0.38,-1.376l0.374,-1.375l0.371,-1.378l0.367,-1.378l0.363,-1.382l0.359,-1.383l0.354,-1.38l0.35,-1.386l0.346,-1.384l0.341,-1.385l0.338,-1.39l0.334,-1.391l0.329,-1.389l0.325,-1.39l0.32,-1.39l0.316,-1.393l0.313,-1.397l0.308,-1.395l0.304,-1.397l0.299,-1.397l0.295,-1.399l0.292,-1.403l0.287,-1.401l0.282,-1.399l0.278,-1.403l0.274,-1.408l0.27,-1.406l0.265,-1.404l0.262,-1.407l0.256,-1.409l0.253,-1.406l0.248,-1.412l0.245,-1.416l0.239,-1.41l0.235,-1.411l0.232,-1.419l0.227,-1.413l0.222,-1.414l0.219,-1.419l0.214,-1.42l0.21,-1.42l0.204,-1.415l0.201,-1.423l0.197,-1.424l0.192,-1.418l0.188,-1.425l0.184,-1.427l0.179,-1.424l0.175,-1.425l0.171,-1.426l0.166,-1.43l0.162,-1.428l0.157,-1.426l0.153,-1.433l0.15,-1.434l0.144,-1.428l0.14,-1.432l0.135,-1.433l0.131,-1.434l0.127,-1.435l0.123,-1.436l0.118,-1.436l0.113,-1.434l0.11,-1.442l0.105,-1.439l0.1,-1.436l0.096,-1.437l0.091,-1.441l0.087,-1.442l0.083,-1.443l0.079,-1.444l0.073,-1.441l0.07,-1.441l0.064,-1.446l0.061,-1.446l0.056,-1.44l0.051,-1.448l0.048,-1.449l0.042,-1.445l0.038,-1.45l0.034,-1.447l0.029,-1.444l0.025,-1.452l0.02,-1.452l0.016,-1.45l0.011,-1.45l0.007,-1.447l0.002,-1.455l-0.002,-1.455l-0.007,-1.447l-0.011,-1.45l-0.016,-1.45l-0.02,-1.452l-0.025,-1.452l-0.029,-1.444l-0.034,-1.447l-0.038,-1.45l-0.042,-1.445l-0.048,-1.449l-0.051,-1.448l-0.056,-1.44l-0.061,-1.446l-0.064,-1.446l-0.07,-1.442l-0.073,-1.44l-0.079,-1.444l-0.083,-1.443l-0.087,-1.442l-0.091,-1.441l-0.096,-1.437l-0.1,-1.436l-0.105,-1.439l-0.11,-1.442l-0.113,-1.434l-0.118,-1.436l-0.123,-1.436l-0.127,-1.435l-0.131,-1.434l-0.135,-1.433l-0.14,-1.432l-0.144,-1.428l-0.15,-1.434l-0.153,-1.433l-0.157,-1.425l-0.162,-1.428l-0.166,-1.431l-0.171,-1.426l-0.175,-1.425l-0.179,-1.424l-0.184,-1.427l-0.188,-1.425l-0.192,-1.418l-0.197,-1.424l-0.201,-1.423l-0.204,-1.414l-0.21,-1.421l-0.214,-1.42l-0.219,-1.419l-0.222,-1.414l-0.227,-1.413l-0.232,-1.419l-0.235,-1.411l-0.239,-1.41l-0.245,-1.416l-0.248,-1.411l-0.252,-1.407l-0.258,-1.409l-0.261,-1.408l-0.265,-1.403l-0.27,-1.406l-0.274,-1.408l-0.279,-1.403l-0.281,-1.399l-0.287,-1.401l-0.292,-1.403l-0.295,-1.399l-0.299,-1.397l-0.304,-1.397l-0.308,-1.395l-0.313,-1.397l-0.316,-1.393l-0.32,-1.391l-0.325,-1.39l-0.329,-1.388l-0.334,-1.391l-0.338,-1.39l-0.341,-1.385l-0.346,-1.384l-0.35,-1.385l-0.354,-1.381l-0.359,-1.383l-0.363,-1.382l-0.366,-1.377l-0.372,-1.379l-0.374,-1.375l-0.38,-1.376l-0.384,-1.374l-0.387,-1.37l-0.392,-1.373l-0.397,-1.374l-0.4,-1.369l-0.404,-1.364l-0.408,-1.367l-0.412,-1.361l-0.417,-1.364l-0.422,-1.365l-0.425,-1.361l-0.429,-1.359l-0.433,-1.357l-0.437,-1.356l-0.443,-1.358l-0.445,-1.353l-0.448,-1.348l-0.455,-1.353l-0.457,-1.348l-0.462,-1.347l-0.467,-1.349l-0.471,-1.346l-0.474,-1.343l-0.477,-1.34l-0.482,-1.339l-0.487,-1.341l-0.491,-1.338l-0.494,-1.334l-0.499,-1.336l-0.502,-1.331l-0.506,-1.329l-0.512,-1.33l-0.516,-1.332l-0.518,-1.325l-0.522,-1.322l-0.528,-1.326l-0.531,-1.323l-0.534,-1.317l-0.539,-1.318l-0.543,-1.317l-0.548,-1.316l-0.55,-1.312l-0.554,-1.309l-0.561,-1.313l-0.562,-1.308l-0.567,-1.306l-0.571,-1.305l-0.575,-1.302l-0.58,-1.304l-0.581,-1.295l-0.588,-1.3l-0.592,-1.3l-0.593,-1.289l-0.598,-1.292l-0.604,-1.292l-0.607,-1.291l-0.61,-1.286l-0.614,-1.284l-0.62,-1.285l-0.621,-1.279l-0.628,-1.282l-0.63,-1.279l-0.634,-1.274l-0.637,-1.272l-0.642,-1.273l-0.647,-1.272l-0.651,-1.269l-0.653,-1.266l-0.657,-1.263l-0.662,-1.264l-0.666,-1.261l-0.669,-1.259l-0.672,-1.254l-0.677,-1.255l-0.683,-1.256l-0.685,-1.251l-0.686,-1.245l-0.694,-1.248l-0.698,-1.247l-0.7,-1.243l-0.703,-1.24l-0.708,-1.238l-0.712,-1.236l-0.716,-1.234l-0.72,-1.235l-0.723,-1.229l-0.727,-1.227l-0.731,-1.228l-0.735,-1.224l-0.74,-1.224l-0.741,-1.218l-0.746,-1.216l-0.751,-1.218l-0.753,-1.211l-0.758,-1.212l-0.763,-1.211l-0.764,-1.205l-0.768,-1.204l-0.773,-1.202l-0.78,-1.204l-0.779,-1.197l-0.782,-1.192l-0.791,-1.198l-0.792,-1.192l-0.794,-1.186l-0.799,-1.188l-0.803,-1.184l-0.806,-1.18l-0.812,-1.182l-0.814,-1.178l-0.816,-1.172l-0.824,-1.176l-0.825,-1.17l-0.829,-1.169l-0.834,-1.167l-0.836,-1.163l-0.841,-1.162l-0.843,-1.158l-0.847,-1.155l-0.851,-1.153l-0.857,-1.154l-0.86,-1.15l-0.86,-1.144l-0.867,-1.146l-0.87,-1.142l-0.874,-1.14l-0.877,-1.136l-0.88,-1.134l-0.886,-1.133l-0.888,-1.129l-0.892,-1.127l-0.897,-1.126l-0.898,-1.121l-0.903,-1.119l-0.907,-1.118l-0.908,-1.112l-0.914,-1.112l-0.919,-1.111l-0.921,-1.107l-0.129,-0.154l-299.499,299.499Z" style="fill:#0df228;"/><circle cx="508.635" cy="508.732" r="52.435" style="fill:#fff;stroke:#fff;stroke-width:41.67px;"/></g></svg>